<?xml version="1.0" standalone="no"?>
<!DOCTYPE svg PUBLIC "-//W3C//DTD SVG 20010904//EN"
 "http://www.w3.org/TR/2001/REC-SVG-20010904/DTD/svg10.dtd">
<svg version="1.0" xmlns="http://www.w3.org/2000/svg"
 width="362.000000pt" height="362.000000pt" viewBox="0 0 362.000000 362.000000"
 preserveAspectRatio="xMidYMid meet">
<metadata>
Created by potrace 1.14, written by Peter Selinger 2001-2017
</metadata>
<g transform="translate(0.000000,362.000000) scale(0.100000,-0.100000)"
fill="#000000" stroke="none">
<path d="M0 1810 l0 -1810 1810 0 1810 0 0 1810 0 1810 -1810 0 -1810 0 0
-1810z m1520 1096 c0 -2 -11 -6 -25 -8 -13 -3 -22 -1 -19 3 5 9 44 13 44 5z
m123 -24 c-29 -2 -53 -8 -53 -14 0 -6 -10 -8 -22 -5 -14 4 -29 0 -40 -10 -19
-17 -39 -10 -21 8 21 21 80 34 134 29 l54 -5 -52 -3z m-200 1 c-7 -2 -21 -2
-30 0 -10 3 -4 5 12 5 17 0 24 -2 18 -5z m330 0 c-7 -2 -19 -2 -25 0 -7 3 -2
5 12 5 14 0 19 -2 13 -5z m74 1 c-3 -3 -12 -4 -19 -1 -8 3 -5 6 6 6 11 1 17
-2 13 -5z m-507 -18 c0 -2 -14 -9 -31 -15 -27 -9 -30 -9 -19 4 11 13 50 22 50
11z m140 -5 c0 -6 -10 -17 -22 -25 -16 -12 -24 -13 -29 -4 -5 7 1 17 14 24 28
15 37 16 37 5z m515 -21 c3 -5 -1 -10 -10 -10 -9 0 -13 5 -10 10 3 6 8 10 10
10 2 0 7 -4 10 -10z m-601 -19 c6 -9 -81 -37 -90 -28 -7 7 46 36 68 37 9 0 19
-4 22 -9z m-164 -26 c-7 -8 -18 -15 -25 -15 -7 0 -18 -7 -25 -15 -7 -8 -25
-15 -41 -15 -15 0 -31 -4 -34 -10 -3 -5 -14 -10 -23 -10 -27 1 22 38 66 50 21
6 48 17 62 24 29 17 38 13 20 -9z m-181 -81 c-15 -18 -22 -13 -13 10 3 9 10
13 16 10 5 -3 4 -12 -3 -20z m-49 7 c0 -5 -9 -11 -20 -14 -20 -5 -26 3 -13 16
9 10 33 8 33 -2z m-110 -75 c0 -3 -4 -8 -10 -11 -5 -3 -10 -1 -10 4 0 6 5 11
10 11 6 0 10 -2 10 -4z m1360 -281 c0 -8 -2 -15 -4 -15 -2 0 -6 7 -10 15 -3 8
-1 15 4 15 6 0 10 -7 10 -15z m-565 -115 c8 0 15 -5 15 -10 0 -16 -30 -24 -43
-11 -6 6 -20 11 -31 11 -27 1 -56 23 -56 43 0 13 9 11 50 -9 27 -13 57 -24 65
-24z m-231 34 c9 -3 14 -10 11 -15 -7 -10 -35 0 -35 12 0 11 3 11 24 3z m346
-49 c-13 -16 -80 -21 -80 -6 0 9 13 12 79 19 11 2 11 -1 1 -13z m-340 -5 c0
-5 -7 -10 -15 -10 -8 0 -15 5 -15 10 0 6 7 10 15 10 8 0 15 -4 15 -10z m275
-188 c62 -22 70 -49 28 -87 -30 -27 -66 -31 -124 -15 -55 16 -60 77 -8 106 32
18 45 17 104 -4z m299 -31 c3 -5 21 -12 40 -15 19 -4 39 -13 46 -21 7 -8 22
-15 34 -15 12 0 32 -9 44 -20 12 -11 27 -20 35 -20 8 0 27 -6 43 -14 16 -8 41
-19 57 -25 15 -6 27 -15 27 -21 0 -13 -37 -13 -45 0 -11 18 -71 38 -99 33 -21
-4 -25 -2 -20 11 4 11 1 16 -10 16 -9 0 -16 -4 -16 -10 0 -5 -13 -10 -30 -10
-16 0 -30 4 -30 9 0 13 27 21 45 15 8 -4 15 -2 15 4 0 12 -29 24 -41 16 -5 -3
-9 2 -9 10 0 9 -4 16 -10 16 -5 0 -10 -4 -10 -10 0 -5 -15 -10 -34 -10 -19 0
-38 5 -41 10 -3 6 1 10 10 10 23 0 13 24 -11 28 -12 1 -23 -7 -31 -23 -10 -22
-8 -29 13 -54 27 -32 30 -47 12 -53 -10 -4 -8 -15 7 -44 11 -21 24 -42 29 -45
15 -11 19 -132 5 -164 -7 -16 -20 -50 -29 -75 -10 -25 -22 -44 -29 -42 -8 1
-9 -6 -5 -23 5 -19 1 -32 -15 -48 -11 -13 -22 -32 -24 -44 -4 -25 -25 -53 -41
-53 -7 0 -28 -8 -48 -18 -20 -11 -65 -22 -100 -26 -42 -4 -68 -12 -78 -24 -11
-14 -27 -17 -67 -16 -38 2 -51 -1 -47 -10 4 -9 -7 -12 -43 -9 -26 2 -109 6
-183 8 -153 5 -204 14 -208 36 -3 14 5 15 55 7 47 -8 245 -6 388 4 17 1 42 -1
56 -5 21 -5 28 -3 32 12 5 21 95 48 124 37 9 -4 24 1 34 10 10 9 35 22 56 29
25 9 39 20 41 34 2 12 12 26 22 31 13 7 18 20 18 41 -1 20 6 37 17 45 12 9 19
32 22 79 3 36 10 68 14 71 5 3 9 16 9 30 0 14 -4 23 -9 20 -5 -3 -12 11 -15
32 -13 76 -31 137 -43 150 -16 16 -17 62 -2 62 5 0 7 5 4 10 -3 6 1 13 9 16 9
3 16 12 16 20 0 15 35 19 44 5z m771 -101 c3 -5 1 -10 -4 -10 -6 0 -11 5 -11
10 0 6 2 10 4 10 3 0 8 -4 11 -10z m433 -17 c5 -18 -10 -16 -34 2 -18 15 -18
15 5 13 14 -2 26 -9 29 -15z m-819 -52 l24 -18 -29 1 c-19 1 -30 7 -32 19 -4
22 7 21 37 -2z m597 -236 c27 -14 56 -25 64 -24 30 3 37 -1 48 -26 14 -31 -5
-47 -24 -20 -7 10 -20 15 -28 12 -8 -3 -17 -1 -19 6 -3 7 -16 0 -35 -20 -34
-37 -61 -35 -92 5 -11 14 -23 22 -27 19 -6 -7 -32 22 -33 36 0 4 6 7 14 7 7 0
19 7 26 15 18 22 50 19 106 -10z m150 -73 c-11 -10 -14 3 -8 33 l7 30 3 -28
c2 -16 1 -31 -2 -35z m-260 -19 c18 -24 17 -34 -1 -27 -18 7 -19 0 -4 -28 9
-16 8 -19 -7 -16 -28 5 -40 33 -26 62 14 31 20 32 38 9z m44 -48 c0 -8 -7 -15
-15 -15 -9 0 -12 6 -9 15 4 8 10 15 15 15 5 0 9 -7 9 -15z m-510 -167 c0 -6
-6 -5 -15 2 -8 7 -15 14 -15 16 0 2 7 1 15 -2 8 -4 15 -11 15 -16z m-631 -57
c9 -6 2 -10 -22 -13 -29 -3 -34 -1 -25 9 12 15 27 16 47 4z m534 2 c-7 -2 -19
-2 -25 0 -7 3 -2 5 12 5 14 0 19 -2 13 -5z m-335 -37 c13 -13 -10 -18 -57 -11
-27 4 -52 12 -54 19 -4 9 8 11 50 5 30 -4 57 -10 61 -13z m-160 1 c15 -17 -11
-57 -37 -57 -26 0 -55 25 -46 39 5 9 10 10 18 2 6 -6 19 -11 30 -11 14 0 17 5
12 20 -7 23 7 27 23 7z m359 -3 c-3 -3 -12 -4 -19 -1 -8 3 -5 6 6 6 11 1 17
-2 13 -5z m-607 -29 c0 -2 -5 -16 -12 -30 -16 -35 -29 -31 -17 5 6 17 15 30
20 30 5 0 9 -2 9 -5z"/>
<path d="M1661 1996 c-10 -11 -4 -15 29 -18 28 -2 45 1 53 11 10 12 8 13 -15
8 -15 -4 -30 -3 -33 3 -9 14 -20 13 -34 -4z"/>
<path d="M2950 1566 c0 -2 7 -9 15 -16 13 -11 14 -10 9 4 -5 14 -24 23 -24 12z"/>
</g>
</svg>
